<svg width="120" height="64" viewBox="0 0 120 64" fill="none" xmlns="http://www.w3.org/2000/svg">
<g opacity="0.05">
<rect width="120" height="64" fill="#C4C4C4"/>
<rect y="3" width="4" height="8" fill="#222629"/>
<rect x="32" y="3" width="8" height="8" fill="#222629"/>
<rect x="68" y="3" width="8" height="8" fill="#222629"/>
<rect x="104" y="3" width="8" height="8" fill="#222629"/>
<rect x="8" y="3" width="8" height="8" fill="#222629"/>
<rect x="44" y="3" width="8" height="8" fill="#222629"/>
<rect x="80" y="3" width="8" height="8" fill="#222629"/>
<rect x="116" y="3" width="4" height="8" fill="#222629"/>
<rect x="20" y="3" width="8" height="8" fill="#222629"/>
<rect x="56" y="3" width="8" height="8" fill="#222629"/>
<rect x="92" y="3" width="8" height="8" fill="#222629"/>
<rect y="53" width="4" height="8" fill="#222629"/>
<rect x="32" y="53" width="8" height="8" fill="#222629"/>
<rect x="68" y="53" width="8" height="8" fill="#222629"/>
<rect x="104" y="53" width="8" height="8" fill="#222629"/>
<rect x="8" y="53" width="8" height="8" fill="#222629"/>
<rect x="44" y="53" width="8" height="8" fill="#222629"/>
<rect x="80" y="53" width="8" height="8" fill="#222629"/>
<rect x="116" y="53" width="4" height="8" fill="#222629"/>
<rect x="20" y="53" width="8" height="8" fill="#222629"/>
<rect x="56" y="53" width="8" height="8" fill="#222629"/>
<rect x="92" y="53" width="8" height="8" fill="#222629"/>
<rect x="4" y="14" width="112" height="37" fill="#474B4F"/>
</g>
</svg>
