<svg width="240" height="151" viewBox="0 0 240 151" fill="none" xmlns="http://www.w3.org/2000/svg">
<g opacity="0.05">
<rect y="76" width="60" height="64" fill="#C4C4C4"/>
<rect x="8" y="79" width="8" height="8" fill="#222629"/>
<rect x="44" y="79" width="8" height="8" fill="#222629"/>
<rect x="20" y="79" width="8" height="8" fill="#222629"/>
<rect x="56" y="79" width="4" height="8" fill="#222629"/>
<rect y="79" width="4" height="8" fill="#222629"/>
<rect x="32" y="79" width="8" height="8" fill="#222629"/>
<rect x="8" y="129" width="8" height="8" fill="#222629"/>
<rect x="44" y="129" width="8" height="8" fill="#222629"/>
<rect x="20" y="129" width="8" height="8" fill="#222629"/>
<rect x="56" y="129" width="4" height="8" fill="#222629"/>
<rect y="129" width="4" height="8" fill="#222629"/>
<rect x="32" y="129" width="8" height="8" fill="#222629"/>
<rect y="90" width="56" height="37" fill="#474B4F"/>
</g>
<g opacity="0.05">
<rect x="120" width="120" height="64" fill="#C4C4C4"/>
<rect x="120" y="3" width="4" height="8" fill="#222629"/>
<rect x="152" y="3" width="8" height="8" fill="#222629"/>
<rect x="188" y="3" width="8" height="8" fill="#222629"/>
<rect x="224" y="3" width="8" height="8" fill="#222629"/>
<rect x="128" y="3" width="8" height="8" fill="#222629"/>
<rect x="164" y="3" width="8" height="8" fill="#222629"/>
<rect x="200" y="3" width="8" height="8" fill="#222629"/>
<rect x="236" y="3" width="4" height="8" fill="#222629"/>
<rect x="140" y="3" width="8" height="8" fill="#222629"/>
<rect x="176" y="3" width="8" height="8" fill="#222629"/>
<rect x="212" y="3" width="8" height="8" fill="#222629"/>
<rect x="120" y="53" width="4" height="8" fill="#222629"/>
<rect x="152" y="53" width="8" height="8" fill="#222629"/>
<rect x="188" y="53" width="8" height="8" fill="#222629"/>
<rect x="224" y="53" width="8" height="8" fill="#222629"/>
<rect x="128" y="53" width="8" height="8" fill="#222629"/>
<rect x="164" y="53" width="8" height="8" fill="#222629"/>
<rect x="200" y="53" width="8" height="8" fill="#222629"/>
<rect x="236" y="53" width="4" height="8" fill="#222629"/>
<rect x="140" y="53" width="8" height="8" fill="#222629"/>
<rect x="176" y="53" width="8" height="8" fill="#222629"/>
<rect x="212" y="53" width="8" height="8" fill="#222629"/>
<rect x="124" y="14" width="112" height="37" fill="#474B4F"/>
</g>
<g opacity="0.05">
<rect x="180" y="76" width="60" height="64" fill="#C4C4C4"/>
<rect x="180" y="79" width="4" height="8" fill="#222629"/>
<rect x="212" y="79" width="8" height="8" fill="#222629"/>
<rect x="188" y="79" width="8" height="8" fill="#222629"/>
<rect x="224" y="79" width="8" height="8" fill="#222629"/>
<rect x="200" y="79" width="8" height="8" fill="#222629"/>
<rect x="236" y="79" width="4" height="8" fill="#222629"/>
<rect x="180" y="129" width="4" height="8" fill="#222629"/>
<rect x="212" y="129" width="8" height="8" fill="#222629"/>
<rect x="188" y="129" width="8" height="8" fill="#222629"/>
<rect x="224" y="129" width="8" height="8" fill="#222629"/>
<rect x="200" y="129" width="8" height="8" fill="#222629"/>
<rect x="236" y="129" width="4" height="8" fill="#222629"/>
<rect x="184" y="90" width="56" height="37" fill="#474B4F"/>
</g>
<g opacity="0.05">
<rect width="120" height="64" fill="#C4C4C4"/>
<rect y="3" width="4" height="8" fill="#222629"/>
<rect x="32" y="3" width="8" height="8" fill="#222629"/>
<rect x="68" y="3" width="8" height="8" fill="#222629"/>
<rect x="104" y="3" width="8" height="8" fill="#222629"/>
<rect x="8" y="3" width="8" height="8" fill="#222629"/>
<rect x="44" y="3" width="8" height="8" fill="#222629"/>
<rect x="80" y="3" width="8" height="8" fill="#222629"/>
<rect x="116" y="3" width="4" height="8" fill="#222629"/>
<rect x="20" y="3" width="8" height="8" fill="#222629"/>
<rect x="56" y="3" width="8" height="8" fill="#222629"/>
<rect x="92" y="3" width="8" height="8" fill="#222629"/>
<rect y="53" width="4" height="8" fill="#222629"/>
<rect x="32" y="53" width="8" height="8" fill="#222629"/>
<rect x="68" y="53" width="8" height="8" fill="#222629"/>
<rect x="104" y="53" width="8" height="8" fill="#222629"/>
<rect x="8" y="53" width="8" height="8" fill="#222629"/>
<rect x="44" y="53" width="8" height="8" fill="#222629"/>
<rect x="80" y="53" width="8" height="8" fill="#222629"/>
<rect x="116" y="53" width="4" height="8" fill="#222629"/>
<rect x="20" y="53" width="8" height="8" fill="#222629"/>
<rect x="56" y="53" width="8" height="8" fill="#222629"/>
<rect x="92" y="53" width="8" height="8" fill="#222629"/>
<rect x="4" y="14" width="112" height="37" fill="#474B4F"/>
</g>
<g opacity="0.05">
<rect x="60" y="76" width="120" height="64" fill="#C4C4C4"/>
<rect x="60" y="79" width="4" height="8" fill="#222629"/>
<rect x="92" y="79" width="8" height="8" fill="#222629"/>
<rect x="128" y="79" width="8" height="8" fill="#222629"/>
<rect x="164" y="79" width="8" height="8" fill="#222629"/>
<rect x="68" y="79" width="8" height="8" fill="#222629"/>
<rect x="104" y="79" width="8" height="8" fill="#222629"/>
<rect x="140" y="79" width="8" height="8" fill="#222629"/>
<rect x="176" y="79" width="4" height="8" fill="#222629"/>
<rect x="80" y="79" width="8" height="8" fill="#222629"/>
<rect x="116" y="79" width="8" height="8" fill="#222629"/>
<rect x="152" y="79" width="8" height="8" fill="#222629"/>
<rect x="60" y="129" width="4" height="8" fill="#222629"/>
<rect x="92" y="129" width="8" height="8" fill="#222629"/>
<rect x="128" y="129" width="8" height="8" fill="#222629"/>
<rect x="164" y="129" width="8" height="8" fill="#222629"/>
<rect x="68" y="129" width="8" height="8" fill="#222629"/>
<rect x="104" y="129" width="8" height="8" fill="#222629"/>
<rect x="140" y="129" width="8" height="8" fill="#222629"/>
<rect x="176" y="129" width="4" height="8" fill="#222629"/>
<rect x="80" y="129" width="8" height="8" fill="#222629"/>
<rect x="116" y="129" width="8" height="8" fill="#222629"/>
<rect x="152" y="129" width="8" height="8" fill="#222629"/>
<rect x="64" y="90" width="112" height="37" fill="#474B4F"/>
</g>
</svg>
