<svg width="70" height="60" viewBox="0 0 70 60" fill="none" xmlns="http://www.w3.org/2000/svg">
<rect x="8.0625" y="29.8636" width="47.3125" height="28.6364" rx="2.5" fill="#66FCF1" stroke="#45A29E" stroke-width="3"/>
<ellipse cx="17.5" cy="19.6364" rx="8.75" ry="8.72727" fill="#C4C4C4"/>
<ellipse cx="41.5625" cy="14.1818" rx="14.2188" ry="14.1818" fill="#C5C6C7"/>
<ellipse cx="14.2188" cy="16.3636" rx="2.1875" ry="2.18182" fill="#222629"/>
<ellipse cx="36.6406" cy="9.27274" rx="3.82812" ry="3.81818" fill="#222629"/>
<ellipse cx="20.7812" cy="16.3636" rx="2.1875" ry="2.18182" fill="#222629"/>
<ellipse cx="46.4844" cy="9.27274" rx="3.82812" ry="3.81818" fill="#222629"/>
<ellipse cx="20.7812" cy="22.9091" rx="2.1875" ry="2.18182" fill="#222629"/>
<ellipse cx="46.4844" cy="19.0909" rx="3.82812" ry="3.81818" fill="#222629"/>
<ellipse cx="14.2188" cy="22.9091" rx="2.1875" ry="2.18182" fill="#222629"/>
<ellipse cx="36.6406" cy="19.0909" rx="3.82812" ry="3.81818" fill="#222629"/>
<path d="M55.6875 46.3624V40.9447L69 33.3573V54.8982L55.6875 46.3624Z" fill="#66FCF1" stroke="#45A29E" stroke-width="2"/>
<rect x="37.1875" y="34.9091" width="14.2188" height="3.27273" rx="1" fill="#1F2833"/>
<path d="M4.875 40.8636H28.2188C29.8756 40.8636 31.2188 42.2068 31.2188 43.8636V44.5C31.2188 46.1569 29.8756 47.5 28.2188 47.5H4.875V40.8636Z" fill="#C4C4C4" stroke="#474B4F"/>
<path d="M0 37.0909L4.375 40.3636V48L0 51.2727V37.0909Z" fill="#C4C4C4"/>
</svg>
