<svg width="114" height="126" viewBox="0 0 114 126" fill="none" xmlns="http://www.w3.org/2000/svg">
<g filter="url(#filter0_d)">
<rect width="50" height="50" transform="matrix(0.866025 -0.5 2.20305e-08 1 57 56)" fill="url(#paint0_linear)"/>
<rect width="50" height="50" transform="matrix(0.866025 0.5 -2.20305e-08 1 13.6987 31)" fill="#45A29E"/>
<path d="M23.5041 57.649L20.9246 56.1598L20.9246 41.8824L28.0118 45.9742L28.0118 48.4547L23.5041 45.8522L23.5041 49.5338L27.6989 51.9557L27.6989 54.4264L23.5041 52.0045L23.5041 57.649ZM33.8947 63.6481L33.8947 49.3707L36.5165 50.8844L36.5165 62.6617L41.5316 65.5573L41.5316 68.0573L33.8947 63.6481ZM47.1523 71.3024L47.1523 57.025L49.7741 58.5387L49.7741 72.816L47.1523 71.3024Z" fill="white"/>
<path d="M65.9512 83.1068C64.9645 83.6765 64.2005 84.5472 63.6593 85.7191C63.118 86.8845 62.8474 88.2321 62.8474 89.7621C62.8474 92.9457 63.882 93.9401 65.9512 92.7455C66.8195 92.2442 67.871 91.3864 69.1058 90.1722L69.1058 92.7113C68.0909 93.7855 66.9576 94.684 65.7059 95.4066C63.9073 96.445 62.5316 96.611 61.5788 95.9047C60.6259 95.1918 60.1495 93.6569 60.1495 91.3002C60.1495 89.8158 60.3835 88.3819 60.8514 86.9984C61.3194 85.6084 61.9904 84.3649 62.8643 83.2679C63.7438 82.1612 64.7728 81.2676 65.9512 80.5873C67.1521 79.8939 68.3587 79.5326 69.5709 79.5033L68.7252 82.4525C68.2628 82.4655 67.7977 82.5127 67.3297 82.5941C66.8618 82.6755 66.4022 82.8464 65.9512 83.1068ZM85.1543 83.9828L82.1773 85.7015L78.9382 81.556L77.8303 83.1136L77.8303 88.2113L75.2085 89.725L75.2085 75.4476L77.8303 73.934L77.8303 80.4672L78.8621 78.1918L82.2111 71.4047L85.1205 69.725L80.8072 78.5336L85.1543 83.9828ZM97.4732 72.9056C97.4732 74.1947 97.07 75.4431 96.2638 76.6508C95.4631 77.8552 94.3468 78.8708 92.9147 79.6976C91.5953 80.4594 90.4282 80.8467 89.4134 80.8597L89.4134 78.0472C90.2478 77.9952 90.9526 77.891 91.5277 77.7347C92.1084 77.5752 92.6384 77.3571 93.1177 77.0804C93.6928 76.7484 94.1325 76.3676 94.437 75.9379C94.7471 75.5049 94.9021 75.0378 94.9021 74.5365C94.9021 74.2566 94.8345 74.0482 94.6992 73.9115C94.5639 73.7683 94.3637 73.6722 94.0987 73.6234C93.8393 73.5713 93.3065 73.5567 92.5003 73.5795C91.7448 73.6055 91.1781 73.5388 90.8004 73.3793C90.4226 73.2198 90.121 72.9545 89.8954 72.5834C89.6699 72.2123 89.5571 71.6914 89.5571 71.0209C89.5571 69.7579 89.9264 68.5518 90.665 67.4027C91.4093 66.2504 92.4354 65.2966 93.7435 64.5414C94.3862 64.1703 94.998 63.905 95.5787 63.7455C96.1651 63.5827 96.7768 63.4769 97.414 63.4281L96.5682 66.2699C95.9086 66.3383 95.3617 66.4359 94.9275 66.5629C94.499 66.6866 94.0761 66.8689 93.6589 67.1097C93.1628 67.3962 92.7822 67.7494 92.5172 68.1693C92.2522 68.5892 92.1197 69.014 92.1197 69.4437C92.1197 69.7107 92.1733 69.9141 92.2804 70.0541C92.3875 70.1875 92.5567 70.2819 92.7878 70.3373C93.0246 70.3829 93.58 70.3942 94.4539 70.3715C95.6097 70.3422 96.4019 70.5261 96.8304 70.9232C97.2589 71.3138 97.4732 71.9747 97.4732 72.9056Z" fill="white"/>
<rect width="50" height="50" transform="matrix(0.866025 0.5 -0.866025 0.5 57 6)" fill="url(#paint1_linear)"/>
<path d="M55.6103 31.3511C52.5572 33.1138 49.3477 33.961 45.9817 33.8926C42.6242 33.8292 39.3047 32.8501 36.0233 30.9556L30.7713 27.9234L49.3181 17.2154L55.1409 20.5772C58.1686 22.3252 59.7206 24.1441 59.7967 26.0337C59.8728 27.9234 58.4773 29.6959 55.6103 31.3511ZM51.424 29.0513C55.4073 26.7515 55.6399 24.586 52.1217 22.5547L50.0285 21.3462L37.9515 28.3189L39.6387 29.293C43.4276 31.4805 47.356 31.4 51.424 29.0513ZM68.55 28.3189L74.322 31.6514C76.9523 33.17 78.483 34.4883 78.9143 35.6065C79.3626 36.7247 78.7706 37.7549 77.1383 38.6973C76.0304 39.337 74.8591 39.7105 73.6243 39.8179C72.398 39.9302 71.2817 39.7789 70.2752 39.3638L70.1484 39.4371C71.0618 40.2671 71.417 41.0386 71.214 41.7515C71.0195 42.4693 70.326 43.1724 69.1335 43.8609C67.442 44.8375 65.5096 45.2452 63.336 45.084C61.171 44.9278 59.0397 44.2442 56.9423 43.0333L50.0031 39.0269L68.55 28.3189ZM65.1374 34.8301L67.4209 36.1485C68.4865 36.7637 69.4211 37.1128 70.2245 37.1959C71.0364 37.2837 71.8229 37.108 72.5841 36.6685C73.2945 36.2584 73.5397 35.814 73.3199 35.3355C73.1169 34.857 72.453 34.293 71.3282 33.6436L69.2604 32.4498L65.1374 34.8301ZM62.0167 36.6319L57.1834 39.4224L59.7459 40.9019C60.8285 41.5269 61.8349 41.8687 62.7652 41.9273C63.6955 41.9859 64.5877 41.7686 65.4419 41.2754C66.9811 40.3868 66.6513 39.3077 64.4524 38.0381L62.0167 36.6319Z" fill="#1F2833"/>
</g>
<defs>
<filter id="filter0_d" x="0.69873" y="0" width="112.603" height="126" filterUnits="userSpaceOnUse" color-interpolation-filters="sRGB">
<feFlood flood-opacity="0" result="BackgroundImageFix"/>
<feColorMatrix in="SourceAlpha" type="matrix" values="0 0 0 0 0 0 0 0 0 0 0 0 0 0 0 0 0 0 127 0"/>
<feOffset dy="7"/>
<feGaussianBlur stdDeviation="6.5"/>
<feColorMatrix type="matrix" values="0 0 0 0 0.4 0 0 0 0 0.988235 0 0 0 0 0.945098 0 0 0 1 0"/>
<feBlend mode="normal" in2="BackgroundImageFix" result="effect1_dropShadow"/>
<feBlend mode="normal" in="SourceGraphic" in2="effect1_dropShadow" result="shape"/>
</filter>
<linearGradient id="paint0_linear" x1="50" y1="0" x2="28.6838" y2="60.1629" gradientUnits="userSpaceOnUse">
<stop stop-color="#66FCF1"/>
<stop offset="1" stop-color="#45A29E"/>
</linearGradient>
<linearGradient id="paint1_linear" x1="3.11568e-06" y1="50" x2="60.1292" y2="28.9922" gradientUnits="userSpaceOnUse">
<stop stop-color="#45A29E"/>
<stop offset="0.718113" stop-color="#66FCF1"/>
</linearGradient>
</defs>
</svg>
