<svg width="350" height="521" viewBox="0 0 350 521" fill="none" xmlns="http://www.w3.org/2000/svg">
<g filter="url(#filter0_d)">
<rect x="4" width="342" height="513" fill="#1F2833"/>
<rect x="47" y="118" width="256" height="194" fill="#1F2833"/>
<path d="M115.326 191L168.359 244.033L62.9998 243.326L115.326 191Z" fill="#45A29E"/>
<path d="M174.791 176L243.498 244.707L107 243.791L174.791 176Z" fill="#45A29E"/>
<path d="M243.019 201L286.618 244.6L200 244.018L243.019 201Z" fill="#45A29E"/>
<path d="M104.126 364H99.4141L81.5186 336.607V364H76.8066V328.453H81.5186L99.4629 355.968V328.453H104.126V364ZM139.795 347.374C139.795 350.857 139.209 353.901 138.037 356.505C136.865 359.093 135.205 361.07 133.057 362.438C130.908 363.805 128.402 364.488 125.537 364.488C122.738 364.488 120.256 363.805 118.091 362.438C115.926 361.054 114.242 359.093 113.037 356.554C111.849 353.998 111.239 351.044 111.206 347.691V345.128C111.206 341.71 111.8 338.691 112.988 336.07C114.176 333.45 115.853 331.448 118.018 330.064C120.199 328.665 122.689 327.965 125.488 327.965C128.337 327.965 130.843 328.657 133.008 330.04C135.189 331.407 136.865 333.401 138.037 336.021C139.209 338.626 139.795 341.661 139.795 345.128V347.374ZM135.132 345.079C135.132 340.864 134.285 337.633 132.593 335.387C130.9 333.124 128.532 331.993 125.488 331.993C122.526 331.993 120.19 333.124 118.481 335.387C116.789 337.633 115.918 340.758 115.869 344.762V347.374C115.869 351.459 116.724 354.674 118.433 357.018C120.158 359.345 122.526 360.509 125.537 360.509C128.564 360.509 130.908 359.41 132.568 357.213C134.229 354.999 135.083 351.834 135.132 347.716V345.079ZM159.229 364V328.453H169.263C172.355 328.453 175.09 329.137 177.466 330.504C179.842 331.871 181.673 333.816 182.959 336.339C184.261 338.862 184.92 341.759 184.937 345.03V347.301C184.937 350.654 184.285 353.591 182.983 356.114C181.698 358.637 179.85 360.574 177.441 361.925C175.049 363.276 172.257 363.967 169.067 364H159.229ZM163.916 332.311V360.167H168.848C172.461 360.167 175.269 359.044 177.271 356.798C179.289 354.552 180.298 351.354 180.298 347.203V345.128C180.298 341.091 179.346 337.958 177.441 335.729C175.553 333.482 172.868 332.343 169.385 332.311H163.916ZM211.133 354.723H196.24L192.896 364H188.062L201.636 328.453H205.737L219.336 364H214.526L211.133 354.723ZM197.656 350.865H209.741L203.687 334.239L197.656 350.865ZM245.508 332.311H234.082V364H229.419V332.311H218.018V328.453H245.508V332.311ZM268.457 354.723H253.564L250.22 364H245.386L258.96 328.453H263.062L276.66 364H271.851L268.457 354.723ZM254.98 350.865H267.065L261.011 334.239L254.98 350.865Z" fill="#C5C6C7"/>
</g>
<defs>
<filter id="filter0_d" x="0" y="0" width="350" height="521" filterUnits="userSpaceOnUse" color-interpolation-filters="sRGB">
<feFlood flood-opacity="0" result="BackgroundImageFix"/>
<feColorMatrix in="SourceAlpha" type="matrix" values="0 0 0 0 0 0 0 0 0 0 0 0 0 0 0 0 0 0 127 0"/>
<feOffset dy="4"/>
<feGaussianBlur stdDeviation="2"/>
<feColorMatrix type="matrix" values="0 0 0 0 0 0 0 0 0 0 0 0 0 0 0 0 0 0 0.5 0"/>
<feBlend mode="normal" in2="BackgroundImageFix" result="effect1_dropShadow"/>
<feBlend mode="normal" in="SourceGraphic" in2="effect1_dropShadow" result="shape"/>
</filter>
</defs>
</svg>
