<svg width="70" height="60" viewBox="0 0 70 60" fill="none" xmlns="http://www.w3.org/2000/svg">
<rect width="70" height="60" fill="#1F2833"/>
<mask id="path-2-inside-1" fill="white">
<path fill-rule="evenodd" clip-rule="evenodd" d="M35 0L27.9596 23.3097L3.61511 22.8024L23.6083 36.7014L15.6031 59.6976L35 44.9779L54.3969 59.6976L46.3916 36.7014L66.3848 22.8024L42.0404 23.3097L35 0Z"/>
</mask>
<path fill-rule="evenodd" clip-rule="evenodd" d="M35 0L27.9596 23.3097L3.61511 22.8024L23.6083 36.7014L15.6031 59.6976L35 44.9779L54.3969 59.6976L46.3916 36.7014L66.3848 22.8024L42.0404 23.3097L35 0Z" fill="#1F2833"/>
<path d="M27.9596 23.3097L27.9179 25.3093L29.4353 25.3409L29.8741 23.888L27.9596 23.3097ZM35 0L36.9146 -0.578275L35 -6.91712L33.0854 -0.578275L35 0ZM3.61511 22.8024L3.65678 20.8029L-2.96346 20.6649L2.4735 24.4446L3.61511 22.8024ZM23.6083 36.7014L25.4972 37.3589L25.9961 35.9255L24.7499 35.0592L23.6083 36.7014ZM15.6031 59.6976L13.7142 59.04L11.5373 65.2936L16.8121 61.2908L15.6031 59.6976ZM35 44.9779L36.209 43.3847L35 42.4672L33.791 43.3847L35 44.9779ZM54.3969 59.6976L53.1879 61.2908L58.4627 65.2936L56.2857 59.04L54.3969 59.6976ZM46.3916 36.7014L45.25 35.0592L44.0038 35.9255L44.5028 37.3589L46.3916 36.7014ZM66.3848 22.8024L67.5265 24.4446L72.9634 20.6649L66.3432 20.8029L66.3848 22.8024ZM42.0404 23.3097L40.1258 23.888L40.5647 25.3409L42.0821 25.3093L42.0404 23.3097ZM29.8741 23.888L36.9146 0.578275L33.0854 -0.578275L26.045 22.7314L29.8741 23.888ZM3.57345 24.802L27.9179 25.3093L28.0012 21.3101L3.65678 20.8029L3.57345 24.802ZM24.7499 35.0592L4.75672 21.1603L2.4735 24.4446L22.4667 38.3435L24.7499 35.0592ZM17.4919 60.3551L25.4972 37.3589L21.7195 36.0438L13.7142 59.04L17.4919 60.3551ZM33.791 43.3847L14.394 58.1044L16.8121 61.2908L36.209 46.5711L33.791 43.3847ZM55.6059 58.1044L36.209 43.3847L33.791 46.5711L53.1879 61.2908L55.6059 58.1044ZM44.5028 37.3589L52.5081 60.3551L56.2857 59.04L48.2804 36.0438L44.5028 37.3589ZM65.2432 21.1603L45.25 35.0592L47.5332 38.3435L67.5265 24.4446L65.2432 21.1603ZM42.0821 25.3093L66.4265 24.802L66.3432 20.8029L41.9987 21.3101L42.0821 25.3093ZM33.0854 0.578275L40.1258 23.888L43.955 22.7314L36.9146 -0.578275L33.0854 0.578275Z" fill="#66FCF1" mask="url(#path-2-inside-1)"/>
<path d="M35 17.9697L38.6469 26.2654L39.1166 27.334L40.2781 27.4505L49.2947 28.3554L42.5319 34.3873L41.6608 35.1642L41.9089 36.3048L43.8346 45.1598L36.0081 40.592L35 40.0036L33.9919 40.592L26.1654 45.1598L28.0911 36.3048L28.3392 35.1642L27.4681 34.3873L20.7053 28.3554L29.7219 27.4505L30.8834 27.334L31.3531 26.2654L35 17.9697Z" stroke="#66FCF1" stroke-width="4"/>
</svg>
