<svg width="70" height="60" viewBox="0 0 70 60" fill="none" xmlns="http://www.w3.org/2000/svg">
<rect width="70" height="60" fill="#1F2833"/>
<line x1="28.2774" y1="3.58397" x2="34.2774" y2="7.58397" stroke="#45A29E"/>
<path d="M59.9916 52.1685C59.9949 51.3151 58.9965 50.85 58.3453 51.4016L55.456 53.849C55.3277 53.9577 55.1708 54.0268 55.0041 54.048C54.2471 54.1446 53.973 55.0999 54.5636 55.5832L58.3362 58.6702C58.9877 59.2033 59.9662 58.742 59.9695 57.9001L59.9916 52.1685Z" fill="#45A29E"/>
<path d="M9.00838 52.1685C9.00508 51.3151 10.0035 50.85 10.6547 51.4016L13.544 53.849C13.6723 53.9577 13.8292 54.0268 13.9959 54.048C14.7529 54.1446 15.027 55.0999 14.4364 55.5832L10.6638 58.6702C10.0123 59.2033 9.03377 58.742 9.03052 57.9001L9.00838 52.1685Z" fill="#45A29E"/>
<line x1="35.6799" y1="7.61589" x2="41.6799" y2="2.61589" stroke="#45A29E"/>
<path d="M43 9.5C43 10.6046 39.4183 11 35 11C30.5817 11 27 10.6046 27 9.5C27 8.39543 30.5817 7 35 7C39.4183 7 43 8.39543 43 9.5Z" fill="#66FCF1"/>
<rect x="5.5" y="9.5" width="58" height="47" rx="12.5" fill="#66FCF1" stroke="#45A29E"/>
<circle cx="28" cy="3" r="2" fill="#66FCF1"/>
<circle cx="42" cy="2" r="2" fill="#66FCF1"/>
<circle cx="57" cy="23" r="3" fill="#45A29E"/>
<circle cx="57" cy="31" r="3" fill="#45A29E"/>
<rect x="54" y="36" width="6" height="12" rx="2" fill="#45A29E"/>
<path d="M31.5 15.0002C50.1597 15.0002 53 14.7201 53 33.269C53 52.2009 50.1701 50.9842 31.5 50.9842C12.8299 50.9842 10 52.2009 10 33.269C10 14.7201 12.8403 15.0002 31.5 15.0002Z" fill="#1F2833"/>
</svg>
