<svg width="70" height="60" viewBox="0 0 70 60" fill="none" xmlns="http://www.w3.org/2000/svg">
<path d="M54.7632 32.2642C54.7632 34.6163 52.7376 36.8958 49.1137 38.6167C45.5276 40.3197 40.5382 41.3868 35 41.3868C29.4618 41.3868 24.4724 40.3197 20.8863 38.6167C17.2624 36.8958 15.2368 34.6163 15.2368 32.2642C15.2368 29.912 17.2624 27.6325 20.8863 25.9116C24.4724 24.2086 29.4618 23.1415 35 23.1415C40.5382 23.1415 45.5276 24.2086 49.1137 25.9116C52.7376 27.6325 54.7632 29.912 54.7632 32.2642Z" stroke="#45A29E"/>
<path d="M51.0789 41.8868C51.0789 43.766 49.4305 45.6219 46.4034 47.0374C43.4165 48.434 39.2551 49.3113 34.6316 49.3113C30.008 49.3113 25.8466 48.434 22.8598 47.0374C19.8327 45.6219 18.1842 43.766 18.1842 41.8868C18.1842 40.0076 19.8327 38.1517 22.8598 36.7363C25.8466 35.3396 30.008 34.4623 34.6316 34.4623C39.2551 34.4623 43.4165 35.3396 46.4034 36.7363C49.4305 38.1517 51.0789 40.0076 51.0789 41.8868Z" stroke="#45A29E"/>
<path d="M44.4474 50.3774C44.4474 51.4894 43.5205 52.6345 41.7045 53.5313C39.9203 54.4124 37.4203 54.9717 34.6316 54.9717C31.8429 54.9717 29.3429 54.4124 27.5586 53.5313C25.7426 52.6345 24.8158 51.4894 24.8158 50.3774C24.8158 49.2653 25.7426 48.1202 27.5586 47.2234C29.3429 46.3423 31.8429 45.783 34.6316 45.783C37.4203 45.783 39.9203 46.3423 41.7045 47.2234C43.5205 48.1202 44.4474 49.2653 44.4474 50.3774Z" stroke="#45A29E"/>
<path d="M37.8158 58.3019C37.8158 58.4579 37.6575 58.7581 37.0274 59.0485C36.4401 59.3193 35.5935 59.5 34.6316 59.5C33.6697 59.5 32.8231 59.3193 32.2357 59.0485C31.6057 58.7581 31.4474 58.4579 31.4474 58.3019C31.4474 58.1459 31.6057 57.8456 32.2357 57.5552C32.8231 57.2845 33.6697 57.1038 34.6316 57.1038C35.5935 57.1038 36.4401 57.2845 37.0274 57.5552C37.6575 57.8456 37.8158 58.1459 37.8158 58.3019Z" stroke="#45A29E"/>
<ellipse cx="35" cy="18.6793" rx="35" ry="14.1509" fill="#66FCF1"/>
<ellipse cx="35" cy="9.05661" rx="20.2632" ry="9.05661" fill="#45A29E"/>
<ellipse cx="46.0526" cy="9.05662" rx="6.26316" ry="4.5283" fill="#DDDDDD"/>
</svg>
